<svg xmlns="http://www.w3.org/2000/svg" version="1.1" xmlns:xlink="http://www.w3.org/1999/xlink" xmlns:svgjs="http://svgjs.dev/svgjs" width="100%" height="100%" viewBox="0 0 1000 600"><rect width="1000" height="600" x="0" y="0" fill="#d2302c"/><g><circle r="166.66666666666666" cx="324.91271464029944" cy="347.13492387567453" fill="#f7f7f9" transform="matrix(0.7899093198500202,0,0,0.78990931985002,0,25.79490364396645)"/><path d="M261.9858874863461 289.2737762944797L261.9858874863461 272.13493927617026L310.67256735773424 272.13493927617026L310.67256735773424 289.2737762944797L296.4324170600912 289.2737762944797L324.6312917601669 337.45388955448925L354.80014772671495 289.2737762944797L339.15286795302023 289.2737762944797L339.15286795302023 272.13493927617026L387.8395478244084 272.13493927617026L387.8395478244084 289.2737762944797L375.09095477138015 289.2737762944797L332.9333556688718 353.1855970967471L332.9333556688718 405.10867476305407L348.3554947263982 405.10867476305407L348.3554947263982 422.13494142327943L299.6969574445311 422.13494142327943L299.6969574445311 405.10867476305407L313.4305411307955 405.10867476305407L313.4305411307955 352.67903048536846L273.665062137575 289.2737762944797L261.9858874863461 289.2737762944797Z " fill="#d2302c" transform="matrix(0.7899093198500202,0,0,0.78990931985002,0,25.79490364396645)"/><path d="M574.912717719687 323.32775272339086L574.912717719687 310.61374805260846L604.0033707909143 310.61374805260846L604.0033707909143 323.32775272339086L594.8888608199727 323.32775272339086L612.8863343191763 372.24720115865307L631.6626458528483 323.32775272339086L622.6533842649428 323.32775272339086L622.6533842649428 310.61374805260846L651.7229876595629 310.61374805260846L651.7229876595629 323.32775272339086L643.8083092552348 323.32775272339086L609.6867834748734 409.3998803704593L620.2116217785012 409.3998803704593L620.2116217785012 422.134934717849L589.2685971658353 422.134934717849L589.2685971658353 409.3998803704593L598.5936039028496 409.3998803704593L606.7398287498576 388.30810440998914L581.1223723188274 323.32775272339086L574.912717719687 323.32775272339086ZM666.0157180758895 348.94520915442104L666.0157180758895 348.94520915442104Q666.0788671057113 339.8306991834793 668.9416231242981 332.3580639879035Q671.7833294662777 324.88542879232784 676.8984008818408 319.51776125747756Q681.9924226207967 314.17114339923467 689.02301460762 311.26628802743335Q696.0536065944433 308.3824823322393 704.4945269139529 308.3824823322393L704.4945269139529 308.3824823322393Q712.9985962632842 308.3824823322393 720.071287603322 311.26628802743335Q727.1439789433601 314.17114339923467 732.1748516524941 319.45461222765584Q737.2057243616283 324.738081056077 740.0053313503932 332.2107162516528Q742.8259880157656 339.6833514472286 742.8259880157656 348.7978614181702L742.8259880157656 348.7978614181702Q742.8259880157656 357.74397397625387 740.0053313503932 365.2587085250442Q737.2057243616283 372.7734430738344 732.1748516524941 378.18320996189914Q727.1439789433601 383.5719271733566 720.071287603322 386.5820309281942Q712.9985962632842 389.5710850064245 704.4945269139529 389.5710850064245L704.4945269139529 389.5710850064245Q695.8431098283708 389.5710850064245 688.8125178415474 386.60308060480145Q681.7819258547241 383.6561258797856 676.7300034689828 378.2884583449354Q671.6991307598486 372.92079081008524 668.8995237710835 365.44815561450946Q666.0788671057113 357.9755204189337 666.0157180758895 348.94520915442104ZM680.5820942881104 348.94520915442104L680.5820942881104 348.94520915442104Q680.5820942881104 355.533757932492 682.4765651827635 360.8593261141277Q684.3710360774165 366.18489429576346 687.6547856281485 369.9317367318549Q690.9385351788802 373.65752949133923 695.2747685599749 375.699348122243Q699.6110019410695 377.7201170765395 704.4945269139529 377.7201170765395L704.4945269139529 377.7201170765395Q709.5885486529088 377.7201170765395 714.0089807404325 375.74144747545745Q718.4083631513489 373.7417281977682 721.6500133488663 369.99488576167664Q724.9127132229909 366.26909300219245 726.7650847644294 360.92247514394955Q728.6174563058679 355.5969069623138 728.6174563058679 348.94520915442104L728.6174563058679 348.94520915442104Q728.6174563058679 341.97776619741944 726.7650847644294 336.589048985962Q724.9127132229909 331.17928209789727 721.6921127020809 327.55873772144923Q718.4715121811706 323.9381933450013 714.0300304170397 322.0858218035628Q709.5885486529088 320.2334502621243 704.4945269139529 320.2334502621243L704.4945269139529 320.2334502621243Q699.6110019410695 320.2334502621243 695.2747685599749 322.0858218035628Q690.9385351788802 323.9381933450013 687.6547856281485 327.55873772144923Q684.3710360774165 331.17928209789727 682.4765651827635 336.589048985962Q680.5820942881104 341.97776619741944 680.5820942881104 348.94520915442104ZM808.1641842046871 387.2766702562336L808.1641842046871 374.54161590884394L818.9837179808166 374.54161590884394L818.9837179808166 339.53600371097775Q818.9837179808166 330.7372388891449 814.5001368634711 326.1905087419776Q810.0165557461256 321.64377859481044 801.6598341330451 321.64377859481044L801.6598341330451 321.64377859481044Q796.8394581899835 321.64377859481044 791.9559332171003 323.9381933450013Q787.072408244217 326.2326080951922 782.7151251865149 329.6216060289603L782.7151251865149 329.6216060289603L782.7151251865149 374.54161590884394L793.5136092860372 374.54161590884394L793.5136092860372 387.2766702562336L757.7081093770952 387.2766702562336L757.7081093770952 374.54161590884394L768.3592457403666 374.54161590884394L768.3592457403666 323.32775272339086L757.7081093770952 323.32775272339086L757.7081093770952 310.61374805260846L782.1257342415119 310.61374805260846L782.1257342415119 319.6440593171211L782.2730819777627 319.6440593171211Q784.7148444642042 317.49699230318106 787.493401776362 315.56042205531355Q790.2509094119126 313.6449014840532 793.3031125199647 312.23457315136716Q796.3342659514095 310.824244818681 799.6180155021412 310.0243571076053Q802.9228147294804 309.2034197199223 806.5433591059285 309.2034197199223L806.5433591059285 309.2034197199223Q812.6898646752471 309.2034197199223 817.6365386779522 310.90844352511Q822.6042623572645 312.6134673302977 826.0774589974616 316.0866639704949Q829.5506556376589 319.5598606106921 831.445126532312 325.0117268519713Q833.3395974269648 330.4425434166433 833.3395974269648 337.85202958239734L833.3395974269648 337.85202958239734L833.3395974269648 374.54161590884394L843.9907337902363 374.54161590884394L843.9907337902363 387.2766702562336L808.1641842046871 387.2766702562336ZM858.199265500134 323.32775272339086L858.199265500134 310.61374805260846L883.2062813095537 310.61374805260846L883.2062813095537 374.54161590884394L894.762553766937 374.54161590884394L894.762553766937 387.2766702562336L858.3466132363848 387.2766702562336L858.3466132363848 374.54161590884394L869.2924450721576 374.54161590884394L869.2924450721576 323.32775272339086L858.199265500134 323.32775272339086ZM866.7033348494653 283.4596652292486L866.7033348494653 283.4596652292486Q866.7033348494653 281.52309498138106 867.4821728839337 279.7970214995861Q868.2610109184021 278.0498983411839 869.5450411914447 276.74481839153407Q870.8501211410945 275.46078811849145 872.6182939761042 274.681950084023Q874.4075164877207 273.9031120495546 876.4072357654101 273.9031120495546L876.4072357654101 273.9031120495546Q878.3227563366703 273.9031120495546 880.0698794950725 274.681950084023Q881.7959529768674 275.46078811849145 883.1010329265174 276.74481839153407Q884.38506319956 278.0498983411839 885.1639012340285 279.7970214995861Q885.9427392684969 281.52309498138106 885.9427392684969 283.4596652292486L885.9427392684969 283.4596652292486Q885.9427392684969 285.43833483033063 885.1639012340285 287.2275573419474Q884.38506319956 288.99573017695684 883.1010329265174 290.36395915642845Q881.7959529768674 291.73218813590006 880.0698794950725 292.51102617036855Q878.3227563366703 293.28986420483704 876.4072357654101 293.28986420483704L876.4072357654101 293.28986420483704Q874.4075164877207 293.28986420483704 872.6182939761042 292.51102617036855Q870.8501211410945 291.73218813590006 869.5450411914447 290.36395915642845Q868.2610109184021 288.99573017695684 867.4821728839337 287.2275573419474Q866.7033348494653 285.43833483033063 866.7033348494653 283.4596652292486ZM951.6598296363492 331.17928209789727Q951.6598296363492 328.0639299600234 950.2074019504483 325.8958132694761Q948.7760239411549 323.7066469023215 946.4816091909642 322.3384179228499Q944.1871944407734 320.9701889433783 941.3665377754011 320.33869864516055Q938.5669307866361 319.70720834694293 935.8936218575146 319.70720834694293L935.8936218575146 319.70720834694293Q932.9466671324989 319.70720834694293 930.4628052928425 320.3807979983751Q927.9789434531864 321.05438764980727 926.210770618177 322.29631856963533Q924.4215481065602 323.5592991660707 923.4322133060192 325.36957135429464Q922.4218288288708 327.1798435425187 922.4218288288708 329.41110926288775L922.4218288288708 329.41110926288775Q922.4218288288708 333.2632000820156 924.7583429322764 335.5155154789919Q927.0948570356817 337.76783087596823 932.5677729535681 339.6833514472286L932.5677729535681 339.6833514472286L947.3025465786471 344.88262156922065Q956.7749010519123 348.06112273691633 961.1321841096141 353.53403865480277Q965.4894671673161 359.0069545726892 965.4894671673161 366.6269375045158L965.4894671673161 366.6269375045158Q965.4894671673161 371.7420089200789 963.4686982130196 375.99404359474454Q961.4268795821157 380.2460782694102 957.7010868226315 383.2351323476405Q953.9542443865399 386.2452361024781 948.691825234726 387.90816055445123Q943.4504557595193 389.5710850064245 937.009254717699 389.5710850064245L937.009254717699 389.5710850064245Q928.0631421596155 389.5710850064245 922.4218288288708 386.68727931123044Q916.8015651747336 383.8034736160364 913.770411743289 379.06729637940384L913.770411743289 379.06729637940384L906.0662301050332 379.06729637940384L906.0662301050332 366.33224203201416L921.3903946751153 366.33224203201416Q921.3903946751153 369.51074319970985 922.758623654587 371.76305859668616Q924.1268526340585 374.03642367026976 926.379168031035 375.42570232634864Q928.6525331046186 376.8360306590348 931.494239446598 377.50962031046697Q934.3359457885778 378.18320996189914 937.3039501902007 378.18320996189914L937.3039501902007 378.18320996189914Q940.1877558853947 378.18320996189914 942.8610648145162 377.46752095725253Q945.5133240670303 376.772881629213 947.5551426979342 375.40465264974137Q949.5969613288381 374.03642367026976 950.7757432188442 372.09985342240225Q951.9545251088506 370.184332851142 951.9545251088506 367.7425703647003L951.9545251088506 367.7425703647003Q951.9545251088506 364.0378272818233 949.5548619756233 361.4487170591309Q947.1551988423963 358.8596068364385 941.3665377754011 356.79673852892734L941.3665377754011 356.79673852892734L926.7159628567512 351.3027729344336Q917.7698502986674 348.12427176673805 913.4336169175727 343.19864744064023Q909.1184332130853 338.2940727911497 909.1184332130853 330.8845866253956L909.1184332130853 330.8845866253956Q909.1184332130853 326.00106165251236 910.9287054013092 321.854275360883Q912.7389775895334 317.7074890692536 916.170074876516 314.7184349910233Q919.6222218401059 311.729380912793 924.568895842811 310.0243571076053Q929.5366195221233 308.3193333024176 935.8936218575146 308.3193333024176L935.8936218575146 308.3193333024176Q944.1029957343443 308.3193333024176 949.6601103586598 310.61374805260846Q955.2172249829752 312.9081628027993 959.6587067471063 318.4442277505076L959.6587067471063 318.4442277505076L966.8366464701804 318.4442277505076L966.8366464701804 331.17928209789727L951.6598296363492 331.17928209789727ZM1006.1995417257484 298.1733891777203L1006.1995417257484 310.61374805260846L1023.9654687822723 310.61374805260846L1023.9654687822723 321.79112633106115L1006.1995417257484 321.79112633106115L1006.1995417257484 374.54161590884394L1018.1978573918842 374.54161590884394L1018.1978573918842 387.2766702562336L980.8978304438273 387.2766702562336L980.8978304438273 374.54161590884394L992.4330532246032 374.54161590884394L992.4330532246032 321.79112633106115L979.7821975836426 321.79112633106115L979.7821975836426 310.61374805260846L992.4330532246032 310.61374805260846L992.4330532246032 298.6154323864727Q992.580400960854 291.9637345785799 994.3696234724708 286.9960108992676Q996.1377963074802 282.0493368965625 999.4004961816048 278.7234879926161Q1002.6421463791222 275.37658941206246 1007.230975879504 273.75576431330376Q1011.8198053798857 272.13493921454506 1017.4400690340229 272.13493921454506L1017.4400690340229 272.13493921454506Q1021.3763585595799 272.13493921454506 1024.4706610208464 272.4927837168684Q1027.58601315872 272.87167789579905 1030.027775645162 273.50316819401667Q1032.4695381316037 274.1346584922344 1034.3640090262566 274.8713971734883Q1036.2374302443022 275.6081358547423 1037.7319572834176 276.34487453599615L1037.7319572834176 276.34487453599615L1033.5009722853592 286.19612318819185Q1031.1434085053465 284.93314259175656 1027.3334170394332 284.04905617425175Q1023.5234255735201 283.16496975674704 1019.3766392818906 283.16496975674704L1019.3766392818906 283.16496975674704Q1013.230133712572 283.16496975674704 1009.7148377191603 286.97496122266034Q1006.1995417257484 290.7849526885736 1006.1995417257484 298.1733891777203L1006.1995417257484 298.1733891777203ZM1030.9118620626668 323.32775272339086L1030.9118620626668 310.61374805260846L1060.0025151338941 310.61374805260846L1060.0025151338941 323.32775272339086L1050.8880051629521 323.32775272339086L1068.885478662156 372.24720115865307L1087.6828398724351 323.32775272339086L1078.6525286079227 323.32775272339086L1078.6525286079227 310.61374805260846L1107.7221320025424 310.61374805260846L1107.7221320025424 323.32775272339086L1099.8074535982146 323.32775272339086L1065.7069774944603 409.3998803704593L1076.210766121481 409.3998803704593L1076.210766121481 422.134934717849L1045.267741508815 422.134934717849L1045.267741508815 409.3998803704593L1054.5927482458292 409.3998803704593L1062.738973092837 388.30810440998914L1037.1425663384143 323.32775272339086L1030.9118620626668 323.32775272339086Z " fill="#f7f7f9" transform="matrix(0.7899093198500202,0,0,0.78990931985002,0,25.79490364396645)"/></g></svg>